<svg xmlns="http://www.w3.org/2000/svg" viewBox="0 0 200 200" width="200" height="200">
  <defs>
    <clipPath id="left-half">
      <rect x="0" y="0" width="100" height="200"/>
    </clipPath>
    <clipPath id="right-half">
      <rect x="100" y="0" width="100" height="200"/>
    </clipPath>
  </defs>
  <!-- Gear shape -->
  <g transform="translate(100,100)">
    <!-- Blue left half -->
    <g clip-path="url(#left-half)" transform="translate(-100,-100)">
      <g transform="translate(100,100)">
        <path d="M-15,-95 L15,-95 L18,-75 C28,-73 37,-69 45,-63 L63,-73 L83,-53 L73,-35 C79,-27 83,-18 85,-8 L95,-5 L95,15 L75,18 C73,28 69,37 63,45 L73,63 L53,83 L35,73 C27,79 18,83 8,85 L5,95 L-15,95 L-18,75 C-28,73 -37,69 -45,63 L-63,73 L-83,53 L-73,35 C-79,27 -83,18 -85,8 L-95,5 L-95,-15 L-75,-18 C-73,-28 -69,-37 -63,-45 L-73,-63 L-53,-83 L-35,-73 C-27,-79 -18,-83 -8,-85 L-5,-95 Z" fill="#3366CC"/>
        <circle cx="0" cy="0" r="60" fill="white"/>
      </g>
    </g>
    <!-- Green right half -->
    <g clip-path="url(#right-half)" transform="translate(-100,-100)">
      <g transform="translate(100,100)">
        <path d="M-15,-95 L15,-95 L18,-75 C28,-73 37,-69 45,-63 L63,-73 L83,-53 L73,-35 C79,-27 83,-18 85,-8 L95,-5 L95,15 L75,18 C73,28 69,37 63,45 L73,63 L53,83 L35,73 C27,79 18,83 8,85 L5,95 L-15,95 L-18,75 C-28,73 -37,69 -45,63 L-63,73 L-83,53 L-73,35 C-79,27 -83,18 -85,8 L-95,5 L-95,-15 L-75,-18 C-73,-28 -69,-37 -63,-45 L-73,-63 L-53,-83 L-35,-73 C-27,-79 -18,-83 -8,-85 L-5,-95 Z" fill="#339933"/>
        <circle cx="0" cy="0" r="60" fill="white"/>
      </g>
    </g>
  </g>
</svg>
